<svg xmlns="http://www.w3.org/2000/svg" viewBox="0 0 960 1320" width="960" height="1320">
<style>
  text { font-family: 'Helvetica Neue', Helvetica, Arial, 'PingFang SC', 'Microsoft YaHei', sans-serif; }
  .title { font-weight: 700; }
  .lbl { font-weight: 600; }
  .sub { font-weight: 400; }
  .mono { font-family: "JetBrains Mono", "Courier New", monospace; }
</style>
<defs>
<marker id="arrow-main" markerWidth="10" markerHeight="7" refX="9" refY="3.5" orient="auto">
  <polygon points="0 0, 10 3.5, 0 7" fill="#ED7100"/>
</marker>
<marker id="arrow-ok" markerWidth="10" markerHeight="7" refX="9" refY="3.5" orient="auto">
  <polygon points="0 0, 10 3.5, 0 7" fill="#01A88D"/>
</marker>
<marker id="arrow-fail" markerWidth="10" markerHeight="7" refX="9" refY="3.5" orient="auto">
  <polygon points="0 0, 10 3.5, 0 7" fill="#DD344C"/>
</marker>
<marker id="arrow-gray" markerWidth="10" markerHeight="7" refX="9" refY="3.5" orient="auto">
  <polygon points="0 0, 10 3.5, 0 7" fill="#6B7280"/>
</marker>
<linearGradient id="hdr" x1="0" y1="0" x2="1" y2="0">
  <stop offset="0" stop-color="#8C4FFF"/><stop offset="0.5" stop-color="#527FFF"/><stop offset="1" stop-color="#01A88D"/>
</linearGradient>
<filter id="soft" x="-20%" y="-20%" width="140%" height="140%">
  <feDropShadow dx="0" dy="1.5" stdDeviation="2.5" flood-color="#1F1B16" flood-opacity="0.12"/>
</filter>
</defs>
<rect width="960" height="1320" fill="#ffffff"/>
<rect x="0" y="0" width="960" height="6" fill="url(#hdr)"/>
<text x="480" y="46" text-anchor="middle" class="title" font-size="24" fill="#1F1B16">Deploy Flow &#8212; LiteLLM &#8594; Bedrock Gateway on EKS</text>
<text x="480" y="70" text-anchor="middle" class="sub" font-size="13" fill="#6B7280">configure &#8594; preflight (fail-fast) &#8594; cdk deploy --all &#8594; post-deploy &#8594; verify E2E</text>
<rect x="140" y="96" width="320" height="74" rx="8" ry="8" fill="#fff7ed" stroke="#ED7100" stroke-width="1.5" filter="url(#soft)"/>
<text x="300.0" y="122" text-anchor="middle" class="lbl" font-size="15" fill="#1F1B16">npm run configure</text>
<text x="300.0" y="142" text-anchor="middle" class="sub" font-size="11.5" fill="#6B7280">multiple-choice wizard</text>
<text x="300.0" y="158" text-anchor="middle" class="sub" font-size="11.5" fill="#6B7280">&#8594; config/deployment.json</text>
<line x1="300" y1="170" x2="300" y2="204" stroke="#ED7100" stroke-width="2" marker-end="url(#arrow-main)"/>
<circle r="4" fill="#ED7100">
  <animate attributeName="cx" values="300;300" dur="2.4s" repeatCount="indefinite"/>
  <animate attributeName="cy" values="170;196" dur="2.4s" repeatCount="indefinite"/>
  <animate attributeName="opacity" values="0;1;1;0" keyTimes="0;0.15;0.85;1" dur="2.4s" repeatCount="indefinite"/>
</circle>
<rect x="110" y="204" width="380" height="96" rx="8" ry="8" fill="#f0fdfa" stroke="#01A88D" stroke-width="1.5" filter="url(#soft)"/>
<text x="300.0" y="230" text-anchor="middle" class="lbl" font-size="15" fill="#1F1B16">preflight.sh  (fail-fast)</text>
<text x="300.0" y="250" text-anchor="middle" class="sub" font-size="11.5" fill="#6B7280">creds &#183; account-not-prod &#183; region &#183; bootstrap</text>
<text x="300.0" y="266" text-anchor="middle" class="sub" font-size="11.5" fill="#6B7280">Bedrock model ACTIVE &#183; service quota checks</text>
<polygon points="300,332 420,384 300,436 180,384" fill="#faf5ff" stroke="#8C4FFF" stroke-width="1.5" filter="url(#soft)"/>
<text x="300" y="380" text-anchor="middle" font-size="12.5" font-weight="600" fill="#1F1B16">preflight</text>
<text x="300" y="395" text-anchor="middle" font-size="11" font-weight="400" fill="#1F1B16">all checks pass?</text>
<line x1="300" y1="300" x2="300" y2="340" stroke="#ED7100" stroke-width="2" marker-end="url(#arrow-main)"/>
<circle r="4" fill="#ED7100">
  <animate attributeName="cx" values="300;300" dur="2.4s" repeatCount="indefinite"/>
  <animate attributeName="cy" values="300;332" dur="2.4s" repeatCount="indefinite"/>
  <animate attributeName="opacity" values="0;1;1;0" keyTimes="0;0.15;0.85;1" dur="2.4s" repeatCount="indefinite"/>
</circle>
<line x1="420" y1="384" x2="540" y2="384" stroke="#DD344C" stroke-width="2" marker-end="url(#arrow-fail)"/>
<rect x="450" y="346" width="46" height="16" rx="4" fill="#ffffff" stroke="#C8C0AE" stroke-width="0.8"/>
<text x="473" y="358" text-anchor="middle" font-size="11" fill="#DD344C">no</text>
<rect x="540" y="352" width="170" height="64" rx="8" ry="8" fill="#fef2f2" stroke="#DD344C" stroke-width="1.5" filter="url(#soft)"/>
<text x="625.0" y="378" text-anchor="middle" class="lbl" font-size="14" fill="#DD344C">ABORT deploy</text>
<text x="625.0" y="398" text-anchor="middle" class="sub" font-size="11.5" fill="#6B7280">exit non-zero</text>
<text x="625.0" y="414" text-anchor="middle" class="sub" font-size="11.5" fill="#6B7280">no partial stacks</text>
<line x1="300" y1="436" x2="300" y2="470" stroke="#ED7100" stroke-width="2" marker-end="url(#arrow-main)"/>
<circle r="4" fill="#ED7100">
  <animate attributeName="cx" values="300;300" dur="2.4s" repeatCount="indefinite"/>
  <animate attributeName="cy" values="436;462" dur="2.4s" repeatCount="indefinite"/>
  <animate attributeName="opacity" values="0;1;1;0" keyTimes="0;0.15;0.85;1" dur="2.4s" repeatCount="indefinite"/>
</circle>
<rect x="306" y="444.0" width="29.799999999999997" height="18" rx="4" fill="#ffffff" stroke="#C8C0AE" stroke-width="0.8"/>
<text x="311" y="457.0" font-size="11" fill="#6B7280">yes</text>
<rect x="70" y="470" width="460" height="322" rx="10" ry="10" fill="none" stroke="#ED7100" stroke-width="1.6" stroke-dasharray="7,4"/>
<rect x="70" y="470" width="185" height="26" rx="6" fill="#ED7100"/>
<text x="163" y="488" text-anchor="middle" class="lbl mono" font-size="13" fill="#ffffff">cdk deploy --all</text>
<text x="450" y="488" text-anchor="middle" class="sub" font-size="10.5" fill="#ED7100">ordered by dependency</text>
<rect x="100.0" y="510" width="400" height="48" rx="6" fill="#faf5ff" stroke="#8C4FFF" stroke-width="1.4"/>
<rect x="100.0" y="510" width="5" height="48" rx="2" fill="#8C4FFF"/>
<text x="116.0" y="529" class="lbl" font-size="13" fill="#1F1B16">1  Network</text>
<text x="116.0" y="544" class="sub" font-size="10.5" fill="#6B7280">VPC &#183; subnets &#183; Bedrock VPCE</text>
<text x="116.0" y="557" class="sub" font-size="10.5" fill="#6B7280">0.0.0.0/0 rejected at 4 layers</text>
<line x1="300" y1="558" x2="300" y2="566" stroke="#ED7100" stroke-width="1.5" marker-end="url(#arrow-main)"/>
<rect x="100.0" y="566" width="400" height="48" rx="6" fill="#fef2f2" stroke="#DD344C" stroke-width="1.4"/>
<rect x="100.0" y="566" width="5" height="48" rx="2" fill="#DD344C"/>
<text x="116.0" y="585" class="lbl" font-size="13" fill="#1F1B16">2  Iam</text>
<text x="116.0" y="600" class="sub" font-size="10.5" fill="#6B7280">AssumeRole + TagSession (L4)</text>
<text x="116.0" y="613" class="sub" font-size="10.5" fill="#6B7280">least-privilege roles</text>
<line x1="300" y1="614" x2="300" y2="622" stroke="#ED7100" stroke-width="1.5" marker-end="url(#arrow-main)"/>
<rect x="100.0" y="622" width="400" height="48" rx="6" fill="#eff6ff" stroke="#527FFF" stroke-width="1.4"/>
<rect x="100.0" y="622" width="5" height="48" rx="2" fill="#527FFF"/>
<text x="116.0" y="641" class="lbl" font-size="13" fill="#1F1B16">3  Data (Aurora)</text>
<text x="116.0" y="656" class="sub" font-size="10.5" fill="#6B7280">Aurora PostgreSQL Serverless v2</text>
<line x1="300" y1="670" x2="300" y2="678" stroke="#ED7100" stroke-width="1.5" marker-end="url(#arrow-main)"/>
<rect x="100.0" y="678" width="400" height="48" rx="6" fill="#fff7ed" stroke="#ED7100" stroke-width="1.4"/>
<rect x="100.0" y="678" width="5" height="48" rx="2" fill="#ED7100"/>
<text x="116.0" y="697" class="lbl" font-size="13" fill="#1F1B16">4  Cluster (EKS 1.31)</text>
<text x="116.0" y="712" class="sub" font-size="10.5" fill="#6B7280">Pod Identity &#183; CloudWatch &#183; ALB Controller</text>
<text x="116.0" y="725" class="sub" font-size="10.5" fill="#6B7280">LiteLLM v1.88.1  (2 replicas)</text>
<line x1="300" y1="726" x2="300" y2="734" stroke="#ED7100" stroke-width="1.5" marker-end="url(#arrow-main)"/>
<rect x="100.0" y="734" width="400" height="48" rx="6" fill="#f0fdfa" stroke="#01A88D" stroke-width="1.4"/>
<rect x="100.0" y="734" width="5" height="48" rx="2" fill="#01A88D"/>
<text x="116.0" y="753" class="lbl" font-size="13" fill="#1F1B16">5  Gateway</text>
<text x="116.0" y="768" class="sub" font-size="10.5" fill="#6B7280">Ingress (ALB idle timeout 600s)</text>
<text x="116.0" y="781" class="sub" font-size="10.5" fill="#6B7280">WAF &#183; internal by default</text>
<line x1="300" y1="792" x2="300" y2="826" stroke="#ED7100" stroke-width="2" marker-end="url(#arrow-main)"/>
<circle r="4" fill="#ED7100">
  <animate attributeName="cx" values="300;300" dur="2.4s" repeatCount="indefinite"/>
  <animate attributeName="cy" values="792;818" dur="2.4s" repeatCount="indefinite"/>
  <animate attributeName="opacity" values="0;1;1;0" keyTimes="0;0.15;0.85;1" dur="2.4s" repeatCount="indefinite"/>
</circle>
<polygon points="300,818 422,872 300,926 178,872" fill="#faf5ff" stroke="#8C4FFF" stroke-width="1.5" filter="url(#soft)"/>
<text x="300" y="868" text-anchor="middle" font-size="12.5" font-weight="600" fill="#1F1B16">exposure =</text>
<text x="300" y="883" text-anchor="middle" font-size="11" font-weight="400" fill="#1F1B16">internet-facing?</text>
<line x1="300" y1="792" x2="300" y2="826" stroke="#ED7100" stroke-width="2" marker-end="url(#arrow-main)"/>
<circle r="4" fill="#ED7100">
  <animate attributeName="cx" values="300;300" dur="2.4s" repeatCount="indefinite"/>
  <animate attributeName="cy" values="792;818" dur="2.4s" repeatCount="indefinite"/>
  <animate attributeName="opacity" values="0;1;1;0" keyTimes="0;0.15;0.85;1" dur="2.4s" repeatCount="indefinite"/>
</circle>
<line x1="422" y1="872" x2="542" y2="872" stroke="#8C4FFF" stroke-width="2" marker-end="url(#arrow-gray)"/>
<rect x="456" y="834" width="46" height="16" rx="4" fill="#ffffff" stroke="#C8C0AE" stroke-width="0.8"/>
<text x="479" y="846" text-anchor="middle" font-size="11" fill="#8C4FFF">yes</text>
<rect x="542" y="832" width="190" height="80" rx="8" ry="8" fill="#faf5ff" stroke="#8C4FFF" stroke-width="1.5" filter="url(#soft)"/>
<text x="637.0" y="858" text-anchor="middle" class="lbl" font-size="13" fill="#8C4FFF">REQUIRE ACM cert</text>
<text x="637.0" y="878" text-anchor="middle" class="sub" font-size="11.5" fill="#6B7280">no HTTP:80 fallback</text>
<text x="637.0" y="894" text-anchor="middle" class="sub" font-size="11.5" fill="#6B7280">else hard-reject deploy</text>
<line x1="300" y1="926" x2="300" y2="960" stroke="#ED7100" stroke-width="2" marker-end="url(#arrow-main)"/>
<circle r="4" fill="#ED7100">
  <animate attributeName="cx" values="300;300" dur="2.4s" repeatCount="indefinite"/>
  <animate attributeName="cy" values="926;952" dur="2.4s" repeatCount="indefinite"/>
  <animate attributeName="opacity" values="0;1;1;0" keyTimes="0;0.15;0.85;1" dur="2.4s" repeatCount="indefinite"/>
</circle>
<rect x="306" y="934.0" width="95.8" height="18" rx="4" fill="#ffffff" stroke="#C8C0AE" stroke-width="0.8"/>
<text x="311" y="947.0" font-size="11" fill="#6B7280">no (internal)</text>
<rect x="110" y="960" width="380" height="74" rx="8" ry="8" fill="#eff6ff" stroke="#527FFF" stroke-width="1.5" filter="url(#soft)"/>
<text x="300.0" y="986" text-anchor="middle" class="lbl" font-size="15" fill="#1F1B16">post-deploy: render secret</text>
<text x="300.0" y="1006" text-anchor="middle" class="sub" font-size="11.5" fill="#6B7280">litellm-db secret &#8592; Aurora endpoint/creds</text>
<text x="300.0" y="1022" text-anchor="middle" class="sub" font-size="11.5" fill="#6B7280">apply to cluster</text>
<line x1="300" y1="1034" x2="300" y2="1068" stroke="#01A88D" stroke-width="2" marker-end="url(#arrow-ok)"/>
<circle r="4" fill="#01A88D">
  <animate attributeName="cx" values="300;300" dur="2.4s" repeatCount="indefinite"/>
  <animate attributeName="cy" values="1034;1060" dur="2.4s" repeatCount="indefinite"/>
  <animate attributeName="opacity" values="0;1;1;0" keyTimes="0;0.15;0.85;1" dur="2.4s" repeatCount="indefinite"/>
</circle>
<rect x="110" y="1068" width="380" height="80" rx="8" ry="8" fill="#f0fdfa" stroke="#01A88D" stroke-width="1.5" filter="url(#soft)"/>
<text x="300.0" y="1094" text-anchor="middle" class="lbl" font-size="15" fill="#01A88D">verify E2E</text>
<text x="300.0" y="1114" text-anchor="middle" class="sub" font-size="11.5" fill="#6B7280">virtual key &#8594; ALB &#8594; WAF &#8594; EKS &#8594; LiteLLM</text>
<text x="300.0" y="1130" text-anchor="middle" class="sub" font-size="11.5" fill="#6B7280">&#8594; real Bedrock claude-sonnet-4-6 + spend log</text>
<line x1="40" y1="1176" x2="920" y2="1176" stroke="#C8C0AE" stroke-width="1"/>
<text x="40" y="1194" class="lbl" font-size="12" fill="#1F1B16">Legend</text>
<line x1="40" y1="1218" x2="72" y2="1218" stroke="#ED7100" stroke-width="2" marker-end="url(#arrow-main)"/>
<text x="80" y="1222" class="sub" font-size="11.5" fill="#6B7280">deploy progression</text>
<line x1="40" y1="1238" x2="72" y2="1238" stroke="#01A88D" stroke-width="2" marker-end="url(#arrow-ok)"/>
<text x="80" y="1242" class="sub" font-size="11.5" fill="#6B7280">success / data path</text>
<line x1="40" y1="1258" x2="72" y2="1258" stroke="#DD344C" stroke-width="2" marker-end="url(#arrow-fail)"/>
<text x="80" y="1262" class="sub" font-size="11.5" fill="#6B7280">fail-fast abort / cross-account</text>
<line x1="40" y1="1278" x2="72" y2="1278" stroke="#8C4FFF" stroke-width="2" marker-end="url(#arrow-gray)"/>
<text x="80" y="1282" class="sub" font-size="11.5" fill="#6B7280">network / security gate</text>
<rect x="620" y="1192" width="300" height="82" rx="8" fill="#ffffff" stroke="#C8C0AE" stroke-width="1"/>
<text x="636" y="1214" class="lbl" font-size="11.5" fill="#1F1B16">Isolation layers provisioned</text>
<text x="636" y="1234" class="sub" font-size="10.5" fill="#6B7280">L1 public global.*   &#183;   L2 same-region VPCE</text>
<text x="636" y="1249" class="sub" font-size="10.5" fill="#6B7280">L3 cross-region us.* (peering)</text>
<text x="636" y="1264" class="sub" font-size="10.5" fill="#6B7280">L4 cross-account AssumeRole + TagSession</text>
</svg>